<svg width="40" height="40" viewBox="0 0 40 40" fill="none" xmlns="http://www.w3.org/2000/svg">
    <path fill-rule="evenodd" clip-rule="evenodd"
          d="M33 20C33 27.1797 27.1797 33 20 33C12.8203 33 7 27.1797 7 20C7 12.8203 12.8203 7 20 7C27.1797 7 33 12.8203 33 20ZM20.0067 14.5457C17.8325 14.5457 15.9533 15.8179 15.0768 17.663C14.8399 18.1618 14.2433 18.3741 13.7445 18.1371C13.2456 17.9002 13.0333 17.3037 13.2703 16.8048C14.4656 14.2887 17.0316 12.5457 20.0067 12.5457C21.9274 12.5457 23.6776 13.2722 24.9985 14.4641L25.0017 14.41C25.0336 13.8586 25.5064 13.4375 26.0578 13.4695C26.6092 13.5014 27.0302 13.9742 26.9983 14.5256L26.8382 17.2917C26.8217 17.5768 26.6841 17.8413 26.46 18.0184C26.236 18.1955 25.9469 18.2684 25.6657 18.2186L23.0597 17.7576C22.5158 17.6614 22.153 17.1425 22.2492 16.5987C22.3454 16.0548 22.8643 15.692 23.4081 15.7882L23.4902 15.8027C22.5449 15.0173 21.3305 14.5457 20.0067 14.5457ZM25.0967 22.337C24.2203 24.1821 22.3411 25.4542 20.1669 25.4542C18.8431 25.4542 17.6287 24.9827 16.6834 24.1973L16.7655 24.2118C17.3093 24.308 17.8282 23.9452 17.9244 23.4013C18.0206 22.8575 17.6577 22.3386 17.1139 22.2424L14.5079 21.7814C14.2267 21.7316 13.9376 21.8045 13.7136 21.9816C13.4895 22.1587 13.3519 22.4232 13.3354 22.7083L13.1753 25.4744C13.1433 26.0258 13.5644 26.4986 14.1158 26.5305C14.6671 26.5625 15.14 26.1414 15.1719 25.59L15.175 25.5359C16.496 26.7278 18.2462 27.4542 20.1669 27.4542C23.142 27.4542 25.708 25.7113 26.9033 23.1952C27.1402 22.6963 26.9279 22.0998 26.4291 21.8628C25.9302 21.6259 25.3337 21.8382 25.0967 22.337Z"
          class="fill-[color:--success]"
          fill="currentColor"
    />
</svg>
