<svg id="Layer_2" xmlns="http://www.w3.org/2000/svg" xmlns:xlink="http://www.w3.org/1999/xlink"
     viewBox="0 0 800 205.82">
    <defs>
        <style>
            .cls-1{fill:#181e36;}.cls-1,.cls-2,.cls-3,.cls-4{stroke-width:0px;}.cls-2{fill:url(#Degradado_sin_nombre_4);}.cls-3{fill:url(#Degradado_sin_nombre_4-3);}.cls-4{fill:url(#Degradado_sin_nombre_4-2);}
        </style>
        <linearGradient id="Degradado_sin_nombre_4" x1="380.62" y1="103.03" x2="789.8" y2="99.06"
                        gradientUnits="userSpaceOnUse">
            <stop offset="0" stop-color="#2d65f3"/>
            <stop offset="1" stop-color="#22b4f6"/>
        </linearGradient>
        <linearGradient id="Degradado_sin_nombre_4-2" x1="380.64" y1="104.68" x2="789.82" y2="100.71"
                        xlink:href="#Degradado_sin_nombre_4"/>
        <linearGradient id="Degradado_sin_nombre_4-3" x1="380.64" y1="105.14" x2="789.82" y2="101.17"
                        xlink:href="#Degradado_sin_nombre_4"/>
    </defs>
    <g id="Capa_1">
        <path class="cls-1"
              d="M398.58,46.38h-21.35V3.52c0-1.94-1.57-3.52-3.52-3.52h-28.5c-1.94,0-3.52,1.57-3.52,3.52v42.86h-42.75c-1.7,0-3.29.82-4.29,2.2l-34.65,48.26V3.52c0-1.94-1.57-3.52-3.52-3.52h-28.5c-1.94,0-3.52,1.57-3.52,3.52v77.37c-8.55-21.69-29.69-37.05-54.42-37.05s-45.83,15.33-54.4,36.99c-8.57-21.66-29.69-36.99-54.4-36.99-9.23,0-17.96,2.15-25.73,5.96h0c0-1.89-1.53-3.42-3.42-3.42H3.42c-1.89,0-3.42,1.53-3.42,3.42v152.51c0,1.94,1.57,3.52,3.52,3.52h28.04c1.94,0,3.52-1.57,3.52-3.52v-47.67c7.88,3.95,16.77,6.19,26.19,6.19,24.71,0,45.83-15.33,54.4-36.99,8.57,21.66,29.69,36.99,54.4,36.99s45.86-15.36,54.42-37.05v31.23c0,1.94,1.57,3.52,3.52,3.52h28.5c1.94,0,3.52-1.57,3.52-3.52v-50.85l34.89,52.03c.98,1.46,2.62,2.34,4.38,2.34h34.37c1.9,0,2.99-2.16,1.87-3.69l-40.75-55.5,17.56-22.73h29.36v78.4c0,1.94,1.57,3.52,3.52,3.52h28.5c1.94,0,3.52-1.57,3.52-3.52v-78.4h4.75c1.88,0,3.61-1,4.56-2.62l14.05-24.12c.9-1.54-.21-3.48-2-3.48ZM61.26,128.52c-14.46,0-26.19-11.73-26.19-26.19s11.73-26.19,26.19-26.19,26.19,11.73,26.19,26.19-11.73,26.19-26.19,26.19ZM170.06,130.28l-28.98-28.98,28.98-28.98,28.98,28.98-28.98,28.98Z"/>
        <path class="cls-2"
              d="M535.63,128.52c-14.88,0-26.86-12.41-26.16-27.45.59-12.65,12.1-24.22,24.74-24.89,7.89-.42,15.05,2.67,20.11,7.83,1.81,1.85,4.93,1.03,5.72-1.44,2.54-7.98,6.58-15.28,11.78-21.59,1.26-1.53,1.01-3.81-.56-5.02-9.87-7.59-22.21-12.12-35.62-12.12-32.31,0-58.49,26.19-58.49,58.49,0,.72.03,1.44.05,2.16-2.13-2.64-4.59-4.92-7.44-6.77-4.15-2.69-8.54-4.77-13.15-6.23-4.62-1.46-8.96-2.73-13.04-3.81-4.08-1.07-7.46-2.31-10.15-3.69-2.69-1.38-4.04-3.23-4.04-5.54,0-2,1-3.61,3-4.85,2-1.23,5-1.85,9-1.85s8.42.89,12.81,2.65c3.4,1.37,6.55,3.47,9.44,6.28,1.41,1.37,3.63,1.39,5-.02l15.29-15.65c1.3-1.33,1.34-3.44.11-4.83-4.63-5.21-10.47-9.23-17.5-12.09-8.15-3.31-16.92-4.96-26.3-4.96s-17.46,1.54-24.23,4.61c-6.77,3.08-12,7.27-15.69,12.58-3.69,5.31-5.54,11.58-5.54,18.81s1.31,12.54,3.92,16.84c2.61,4.31,6,7.69,10.15,10.15,4.15,2.46,8.54,4.42,13.15,5.88,4.61,1.46,9.03,2.77,13.27,3.92,4.23,1.15,7.65,2.39,10.27,3.69,2.61,1.31,3.92,3.35,3.92,6.11,0,2.31-1.12,4.08-3.34,5.31-2.23,1.23-5.27,1.85-9.11,1.85-6.15,0-11.73-1.11-16.73-3.35-4-1.78-7.63-4.13-10.89-7.05-1.39-1.24-3.5-1.18-4.81.13l-15.35,15.35c-1.42,1.42-1.38,3.73.1,5.09,3.39,3.11,7.2,5.91,11.45,8.4,5.38,3.15,11.31,5.62,17.77,7.38,6.46,1.77,13,2.65,19.61,2.65,14,0,25.11-3.27,33.34-9.81,7.29-5.79,11.34-13.32,12.17-22.56,9.73,18.81,29.34,31.67,51.98,31.67,13.41,0,25.76-4.52,35.62-12.12,1.58-1.21,1.83-3.49.56-5.02-5.2-6.31-9.24-13.61-11.78-21.59-.81-2.54-3.96-3.23-5.83-1.33-4.74,4.79-11.31,7.76-18.58,7.76Z"/>
        <path class="cls-4"
              d="M683.07,49.9c0-1.94-1.57-3.52-3.52-3.52h-27.81c-1.94,0-3.52,1.57-3.52,3.52v.14c-9-4.52-19.32-6.79-30.23-6.06-28.94,1.96-52.4,25.42-54.32,54.36-2.27,34.11,24.73,62.49,58.36,62.49,9.42,0,18.31-2.24,26.19-6.19v.37c0,1.94,1.57,3.52,3.52,3.52h27.81c1.94,0,3.52-1.57,3.52-3.52V49.9ZM622.04,128.52c-14.46,0-26.19-11.73-26.19-26.19s11.73-26.19,26.19-26.19,26.19,11.73,26.19,26.19-11.73,26.19-26.19,26.19Z"/>
        <path class="cls-3"
              d="M794.46,65.42c-3.69-6.54-8.77-11.73-15.23-15.58-6.46-3.84-13.77-5.77-21.92-5.77-8.62,0-16.35,1.81-23.19,5.42-3.12,1.65-5.91,3.62-8.42,5.88v-5.48c0-1.94-1.57-3.52-3.52-3.52h-28.5c-1.94,0-3.52,1.57-3.52,3.52v105.11c0,1.94,1.57,3.52,3.52,3.52h28.5c1.94,0,3.52-1.57,3.52-3.52v-60.4c0-3.84.84-7.23,2.54-10.15,1.69-2.92,4-5.19,6.92-6.81,2.92-1.62,6.23-2.42,9.92-2.42,5.54,0,10.15,1.81,13.84,5.42,3.69,3.62,5.54,8.27,5.54,13.96v60.4c0,1.94,1.57,3.52,3.52,3.52h28.5c1.94,0,3.52-1.57,3.52-3.52v-68.24c0-7.69-1.85-14.8-5.54-21.34Z"/>
    </g>
</svg>
