<?xml version="1.0" encoding="UTF-8"?><svg id="Layer_2" xmlns="http://www.w3.org/2000/svg" viewBox="0 0 936.83 213.46"><defs><style>.cls-1{fill:#f8f4fd;stroke-width:0px;}</style></defs><g id="Capa_1"><path class="cls-1" d="M312.43,168.48c-12.4,0-23.2-2.96-32.4-8.87-9.2-5.91-15.58-13.93-19.14-24.06l21.17-10.05c2.99,6.56,7.16,11.69,12.51,15.4,5.35,3.71,11.3,5.56,17.86,5.56,4.99,0,8.98-1.14,11.97-3.42,2.99-2.28,4.49-5.27,4.49-8.98,0-2.28-.61-4.17-1.82-5.67-1.21-1.5-2.82-2.78-4.81-3.85-2-1.07-4.28-1.96-6.84-2.67l-19.03-5.35c-9.7-2.71-17.07-7.02-22.13-12.94-5.06-5.91-7.59-12.86-7.59-20.85,0-7.13,1.82-13.36,5.45-18.71,3.64-5.35,8.69-9.52,15.18-12.51,6.49-2.99,13.93-4.49,22.35-4.49,10.98,0,20.67,2.64,29.08,7.91,8.41,5.28,14.4,12.69,17.96,22.24l-21.38,10.05c-2-5.27-5.35-9.44-10.05-12.51-4.7-3.06-9.98-4.6-15.82-4.6-4.7,0-8.41,1.04-11.12,3.1-2.71,2.07-4.06,4.88-4.06,8.45,0,2,.57,3.78,1.71,5.35,1.14,1.57,2.74,2.85,4.81,3.85,2.06,1,4.45,1.92,7.16,2.78l18.6,5.56c9.55,2.85,16.93,7.13,22.13,12.83,5.2,5.7,7.81,12.69,7.81,20.96,0,6.99-1.85,13.15-5.56,18.5-3.71,5.35-8.84,9.52-15.4,12.51-6.56,2.99-14.26,4.49-23.09,4.49Z"/><path class="cls-1" d="M426.19,168.48c-11.26,0-21.56-2.64-30.9-7.91-9.34-5.27-16.79-12.47-22.35-21.6-5.56-9.12-8.34-19.53-8.34-31.22s2.78-22.1,8.34-31.22c5.56-9.12,12.97-16.32,22.24-21.6,9.26-5.27,19.6-7.91,31.01-7.91s21.95,2.64,31.22,7.91c9.27,5.28,16.64,12.44,22.13,21.49,5.49,9.05,8.23,19.5,8.23,31.33s-2.78,22.1-8.34,31.22c-5.56,9.12-12.97,16.33-22.24,21.6-9.27,5.28-19.6,7.91-31.01,7.91ZM426.19,142.82c6.42,0,12.01-1.5,16.79-4.49,4.77-2.99,8.55-7.16,11.33-12.51,2.78-5.35,4.17-11.37,4.17-18.07s-1.39-12.69-4.17-17.96c-2.78-5.27-6.56-9.41-11.33-12.4-4.78-2.99-10.37-4.49-16.79-4.49s-11.83,1.5-16.68,4.49c-4.85,2.99-8.66,7.13-11.44,12.4-2.78,5.28-4.17,11.26-4.17,17.96s1.39,12.72,4.17,18.07c2.78,5.35,6.59,9.52,11.44,12.51,4.84,2.99,10.41,4.49,16.68,4.49Z"/><path class="cls-1" d="M557.06,168.48c-11.26,0-21.56-2.64-30.9-7.91-9.34-5.27-16.79-12.47-22.35-21.6-5.56-9.12-8.34-19.53-8.34-31.22s2.78-22.1,8.34-31.22c5.56-9.12,12.97-16.32,22.24-21.6,9.26-5.27,19.6-7.91,31.01-7.91s21.95,2.64,31.22,7.91c9.27,5.28,16.64,12.44,22.13,21.49,5.49,9.05,8.23,19.5,8.23,31.33s-2.78,22.1-8.34,31.22c-5.56,9.12-12.97,16.33-22.24,21.6-9.27,5.28-19.6,7.91-31.01,7.91ZM557.06,142.82c6.42,0,12.01-1.5,16.79-4.49,4.77-2.99,8.55-7.16,11.33-12.51,2.78-5.35,4.17-11.37,4.17-18.07s-1.39-12.69-4.17-17.96c-2.78-5.27-6.56-9.41-11.33-12.4-4.78-2.99-10.37-4.49-16.79-4.49s-11.83,1.5-16.68,4.49c-4.85,2.99-8.66,7.13-11.44,12.4-2.78,5.28-4.17,11.26-4.17,17.96s1.39,12.72,4.17,18.07c2.78,5.35,6.59,9.52,11.44,12.51,4.84,2.99,10.41,4.49,16.68,4.49Z"/><path class="cls-1" d="M682.15,167.19c-13.12,0-23.31-3.6-30.58-10.8-7.27-7.2-10.91-17.35-10.91-30.47v-51.32h-19.89v-25.02h2.14c5.7,0,10.08-1.5,13.15-4.49,3.06-2.99,4.6-7.34,4.6-13.04v-8.33h28.23v25.86h26.73v25.02h-26.73v49.82c0,3.85.68,7.13,2.03,9.84,1.35,2.71,3.49,4.78,6.42,6.2,2.92,1.43,6.66,2.14,11.23,2.14,1,0,2.17-.07,3.53-.21,1.35-.14,2.67-.28,3.96-.43v23.95c-2,.28-4.28.57-6.84.86-2.57.28-4.92.43-7.06.43Z"/><path class="cls-1" d="M708.67,165.91V23.72h28.23v48.74l-3.85-4.06c2.71-6.98,7.16-12.29,13.36-15.93,6.2-3.64,13.44-5.45,21.7-5.45s16.14,1.85,22.77,5.56c6.63,3.71,11.79,8.87,15.5,15.5,3.71,6.63,5.56,14.29,5.56,22.99v74.84h-28.01v-68.22c0-5.13-1-9.55-2.99-13.26-2-3.71-4.74-6.56-8.23-8.55-3.49-1.99-7.59-2.99-12.3-2.99s-8.63,1-12.19,2.99c-3.57,2-6.34,4.85-8.34,8.55-2,3.71-2.99,8.13-2.99,13.26v68.22h-28.23Z"/><path class="cls-1" d="M882.3,168.48c-11.97,0-22.49-2.71-31.54-8.13-9.05-5.42-16.07-12.76-21.06-22.03-4.99-9.27-7.48-19.53-7.48-30.79s2.57-22.06,7.7-31.11c5.13-9.05,12.05-16.21,20.74-21.49,8.69-5.27,18.53-7.91,29.51-7.91,9.12,0,17.14,1.5,24.06,4.49,6.91,2.99,12.79,7.13,17.64,12.4,4.84,5.27,8.55,11.3,11.12,18.07,2.57,6.77,3.85,14.08,3.85,21.92,0,2.14-.11,4.24-.32,6.31-.21,2.07-.61,3.96-1.18,5.67h-89.81v-21.6h73.99l-13.47,10.05c1.42-6.56,1.18-12.4-.75-17.54-1.92-5.13-5.06-9.2-9.41-12.19-4.35-2.99-9.59-4.49-15.72-4.49s-11.05,1.5-15.61,4.49c-4.56,2.99-8.02,7.27-10.37,12.83-2.35,5.56-3.24,12.33-2.67,20.31-.57,7.13.39,13.44,2.89,18.92,2.49,5.49,6.2,9.73,11.12,12.72,4.92,2.99,10.58,4.49,17,4.49s11.87-1.35,16.36-4.06c4.49-2.71,8.02-6.34,10.58-10.91l22.67,11.12c-2.28,5.56-5.85,10.48-10.69,14.75-4.85,4.28-10.62,7.63-17.32,10.05-6.7,2.42-13.97,3.64-21.81,3.64Z"/><path class="cls-1" d="M213.46,106.73c0-41.91-24.16-78.18-59.32-95.64-.77-.38-1.7-.22-2.3.38l-23.37,23.37L63.08,100.23c-4.6,4.6-4.95,12.15-.43,16.84,4.6,4.77,12.2,4.83,16.87.16l37.71-37.71c13.85-13.85,36.3-13.85,50.15,0h0c13.85,13.85,13.85,36.3,0,50.15l-65.67,65.67-14.7,14.7c-.57.57-.27,1.55.52,1.7,6.23,1.13,12.64,1.73,19.2,1.73,58.95,0,106.73-47.78,106.73-106.73Z"/><path class="cls-1" d="M84.99,178.62l65.67-65.67c4.62-4.62,4.62-12.1,0-16.72h0c-4.62-4.62-12.1-4.62-16.72,0l-37.71,37.71c-13.85,13.85-36.3,13.85-50.15,0h0c-13.85-13.85-13.85-36.3,0-50.15L111.75,18.12l14.7-14.7c.57-.57.27-1.55-.52-1.7C119.7.59,113.28,0,106.73,0,47.78,0,0,47.78,0,106.73c0,41.91,24.16,78.18,59.32,95.64.77.38,1.7.22,2.3-.38l23.37-23.37Z"/></g></svg>
